<svg id="Layer_1" data-name="Layer 1" xmlns="http://www.w3.org/2000/svg" viewBox="0 0 2030.75 1463.07"><defs><style>.cls-1{fill:#202239;}</style></defs><title>hex</title><path class="cls-1" d="M766.14,680.07,561.33,628.8a12.57,12.57,0,0,0-12.09,3.45L402.44,784a12.57,12.57,0,0,0-3.05,12.2l58,203a12.57,12.57,0,0,0,9,8.74l204.81,51.27a12.57,12.57,0,0,0,12.09-3.45L830.13,904a12.57,12.57,0,0,0,3.05-12.2l-58-203A12.57,12.57,0,0,0,766.14,680.07Z"/><path class="cls-1" d="M1164.14,566.07,959.33,514.8a12.57,12.57,0,0,0-12.09,3.45L800.44,670a12.57,12.57,0,0,0-3.05,12.2l58,203a12.57,12.57,0,0,0,9,8.74l204.81,51.27a12.57,12.57,0,0,0,12.09-3.45L1228.13,790a12.57,12.57,0,0,0,3.05-12.2l-58-203A12.57,12.57,0,0,0,1164.14,566.07Z"/><path class="cls-1" d="M1064.13,968.56,859.32,917.29a12.57,12.57,0,0,0-12.09,3.45l-146.8,151.74a12.57,12.57,0,0,0-3.05,12.2l58,203a12.57,12.57,0,0,0,9,8.74l204.81,51.27a12.57,12.57,0,0,0,12.09-3.45l146.8-151.74a12.57,12.57,0,0,0,3.05-12.2l-58-203A12.57,12.57,0,0,0,1064.13,968.56Z"/><path class="cls-1" d="M665.13,1083.56l-204.81-51.27a12.57,12.57,0,0,0-12.09,3.45l-146.8,151.74a12.57,12.57,0,0,0-3.05,12.2l58,203a12.57,12.57,0,0,0,9,8.74l204.81,51.27a12.57,12.57,0,0,0,12.09-3.45l146.8-151.74a12.57,12.57,0,0,0,3.05-12.2l-58-203A12.57,12.57,0,0,0,665.13,1083.56Z"/><path class="cls-1" d="M1563.18,451.5l-204.81-51.27a12.57,12.57,0,0,0-12.09,3.45l-146.8,151.74a12.57,12.57,0,0,0-3.05,12.2l58,203a12.57,12.57,0,0,0,9,8.74l204.81,51.27a12.57,12.57,0,0,0,12.09-3.45l146.8-151.74a12.57,12.57,0,0,0,3.05-12.2l-58-203A12.57,12.57,0,0,0,1563.18,451.5Z"/><path class="cls-1" d="M1963.22,339l-204.81-51.27a12.57,12.57,0,0,0-12.09,3.45l-146.8,151.74a12.57,12.57,0,0,0-3.05,12.2l58,203a12.57,12.57,0,0,0,9,8.74l204.81,51.27a12.57,12.57,0,0,0,12.09-3.45l146.8-151.74a12.57,12.57,0,0,0,3.05-12.2l-58-203A12.57,12.57,0,0,0,1963.22,339Z"/><path class="cls-1" d="M1462.13,854.56l-204.81-51.27a12.57,12.57,0,0,0-12.09,3.45l-146.8,151.74a12.57,12.57,0,0,0-3.05,12.2l58,203a12.57,12.57,0,0,0,9,8.74l204.81,51.27a12.57,12.57,0,0,0,12.09-3.45l146.8-151.74a12.57,12.57,0,0,0,3.05-12.2l-58-203A12.57,12.57,0,0,0,1462.13,854.56Z"/><path class="cls-1" d="M1862.67,741l-204.81-51.27a12.57,12.57,0,0,0-12.09,3.45L1499,845a12.57,12.57,0,0,0-3.05,12.2l58,203a12.57,12.57,0,0,0,9,8.74l204.81,51.27a12.57,12.57,0,0,0,12.09-3.45L1926.66,965a12.57,12.57,0,0,0,3.05-12.2l-58-203A12.57,12.57,0,0,0,1862.67,741Z"/><path class="cls-1" d="M867.11,279.15,662.3,227.89a12.57,12.57,0,0,0-12.09,3.45L503.41,383.08a12.57,12.57,0,0,0-3.05,12.2l58,203a12.57,12.57,0,0,0,9,8.74l204.81,51.27a12.57,12.57,0,0,0,12.09-3.45L931.1,503.1a12.57,12.57,0,0,0,3.05-12.2l-58-203A12.57,12.57,0,0,0,867.11,279.15Z"/><path class="cls-1" d="M468.11,394.15,263.3,342.89a12.57,12.57,0,0,0-12.09,3.45L104.41,498.08a12.57,12.57,0,0,0-3.05,12.2l58,203a12.57,12.57,0,0,0,9,8.74l204.81,51.27a12.57,12.57,0,0,0,12.09-3.45L532.1,618.1a12.57,12.57,0,0,0,3.05-12.2l-58-203A12.57,12.57,0,0,0,468.11,394.15Z"/><path class="cls-1" d="M1265.11,165.15,1060.3,113.89a12.57,12.57,0,0,0-12.09,3.45L901.41,269.08a12.57,12.57,0,0,0-3.05,12.2l58,203a12.57,12.57,0,0,0,9,8.74l204.81,51.27a12.57,12.57,0,0,0,12.09-3.45L1329.1,389.1a12.57,12.57,0,0,0,3.05-12.2l-58-203A12.57,12.57,0,0,0,1265.11,165.15Z"/><path class="cls-1" d="M1665.65,51.64,1460.84.38a12.57,12.57,0,0,0-12.09,3.45l-146.8,151.74a12.57,12.57,0,0,0-3.05,12.2l58,203a12.57,12.57,0,0,0,9,8.74l204.81,51.27a12.57,12.57,0,0,0,12.09-3.45l146.8-151.74a12.57,12.57,0,0,0,3.05-12.2l-58-203A12.57,12.57,0,0,0,1665.65,51.64Z"/><path class="cls-1" d="M367.24,795,162.43,743.72a12.57,12.57,0,0,0-12.09,3.45L3.54,898.91a12.57,12.57,0,0,0-3.05,12.2l58,203a12.57,12.57,0,0,0,9,8.74l204.81,51.27a12.57,12.57,0,0,0,12.09-3.45l146.8-151.74a12.57,12.57,0,0,0,3.05-12.2l-58-203A12.57,12.57,0,0,0,367.24,795Z"/></svg>