<?xml version="1.0" encoding="utf-8"?>
<!-- Generator: Adobe Illustrator 21.0.2, SVG Export Plug-In . SVG Version: 6.00 Build 0)  -->
<svg version="1.1" id="Layer_1" xmlns="http://www.w3.org/2000/svg" xmlns:xlink="http://www.w3.org/1999/xlink" x="0px" y="0px"
	 viewBox="0 0 408.5 57.4" style="enable-background:new 0 0 408.5 57.4;" xml:space="preserve">
<style type="text/css">
	.st0{fill:#FFFFFF;}
</style>
<g>
	<path class="st0" d="M165.8,24.7c-0.5-0.5-1.1-0.9-1.8-1.2c-0.7-0.3-1.4-0.4-2.2-0.4s-1.5,0.1-2.2,0.4c-0.7,0.3-1.3,0.7-1.8,1.2
		c-0.5,0.5-0.9,1.1-1.2,1.8c-0.3,0.7-0.4,1.4-0.4,2.2c0,0.8,0.1,1.5,0.4,2.2c0.3,0.7,0.7,1.3,1.2,1.8c0.5,0.5,1.1,0.9,1.8,1.2
		c0.7,0.3,1.4,0.4,2.2,0.4s1.5-0.1,2.2-0.4c0.7-0.3,1.3-0.7,1.8-1.2c0.5-0.5,0.9-1.1,1.2-1.8c0.3-0.7,0.4-1.4,0.4-2.2
		c0-0.8-0.1-1.5-0.4-2.2C166.7,25.8,166.3,25.3,165.8,24.7z"/>
	<path class="st0" d="M189.6,23.2c-0.7-0.5-1.6-0.7-2.6-0.7h-0.4v5.9h0.4c1,0,1.9-0.2,2.6-0.7c0.7-0.5,1.1-1.2,1.1-2.3
		S190.3,23.7,189.6,23.2z"/>
	<path class="st0" d="M193.9,29.8c0.9-1.1,1.3-2.4,1.3-4.1c0-1.2-0.2-2.2-0.7-3.1c-0.5-0.9-1.1-1.6-1.9-2.2
		c-0.8-0.6-1.7-1.1-2.8-1.4c-1.1-0.3-2.2-0.5-3.5-0.5H182v20.3h1v-6.1h3.3c1,0,2.1-0.1,3-0.3l3.8,6.4h1.2l-4-6.7
		C191.9,31.6,193,30.8,193.9,29.8z M192,30.2c-1.4,1.1-3.3,1.6-5.7,1.6h-3.3V19.5h3.3c2.4,0,4.3,0.5,5.7,1.6
		c1.4,1.1,2.1,2.6,2.1,4.6C194.1,27.6,193.4,29.2,192,30.2z"/>
	<polygon class="st0" points="135.8,18.5 134.8,18.5 134.8,38.8 144.8,38.8 144.8,37.9 135.8,37.9 	"/>
	<path class="st0" d="M169.1,21.5c-0.9-0.9-2-1.7-3.3-2.2c-1.2-0.5-2.6-0.8-4-0.8c-1.4,0-2.7,0.3-4,0.8c-1.2,0.5-2.3,1.3-3.3,2.2
		c-0.9,0.9-1.7,2-2.2,3.3c-0.5,1.2-0.8,2.6-0.8,4c0,1.4,0.3,2.7,0.8,4c0.5,1.2,1.3,2.3,2.2,3.3c0.9,0.9,2,1.7,3.3,2.2
		c1.2,0.5,2.6,0.8,4,0.8c1.4,0,2.7-0.3,4-0.8c1.2-0.5,2.3-1.3,3.3-2.2c0.9-0.9,1.7-2,2.2-3.3c0.5-1.2,0.8-2.6,0.8-4
		c0-1.4-0.3-2.7-0.8-4C170.7,23.5,170,22.4,169.1,21.5z M170.3,32.3c-0.5,1.1-1.1,2.1-2,2.9c-0.8,0.8-1.8,1.5-2.9,2
		c-1.1,0.5-2.3,0.7-3.6,0.7c-1.3,0-2.5-0.2-3.6-0.7c-1.1-0.5-2.1-1.1-2.9-2c-0.8-0.8-1.5-1.8-2-2.9c-0.5-1.1-0.7-2.3-0.7-3.6
		c0-1.3,0.2-2.5,0.7-3.6c0.5-1.1,1.1-2.1,2-2.9c0.8-0.8,1.8-1.5,2.9-2c1.1-0.5,2.3-0.7,3.6-0.7c1.3,0,2.5,0.2,3.6,0.7
		c1.1,0.5,2.1,1.1,2.9,2c0.8,0.8,1.5,1.8,2,2.9c0.5,1.1,0.7,2.3,0.7,3.6C171,30,170.8,31.2,170.3,32.3z"/>
	<polygon class="st0" points="206.4,29.1 214,29.1 214,28.1 206.4,28.1 206.4,19.5 214.4,19.5 214.4,18.5 205.3,18.5 205.3,38.8 
		214.4,38.8 214.4,37.9 206.4,37.9 	"/>
	<polygon class="st0" points="245.8,38.8 246.8,38.8 246.8,19.5 252.5,19.5 252.5,18.5 240.1,18.5 240.1,19.5 245.8,19.5 	"/>
	<polygon class="st0" points="221.4,19.5 227.1,19.5 227.1,38.8 228.2,38.8 228.2,19.5 233.9,19.5 233.9,18.5 221.4,18.5 	"/>
	<polygon class="st0" points="117.4,29.1 125,29.1 125,28.1 117.4,28.1 117.4,19.5 125.4,19.5 125.4,18.5 116.4,18.5 116.4,38.8 
		125.4,38.8 125.4,37.9 117.4,37.9 	"/>
	<path class="st0" d="M24.9,31.1h-1v4.6h1c2,0,3-0.8,3-2.3S26.9,31.1,24.9,31.1z"/>
	<polygon class="st0" points="47.5,33.7 51.1,33.7 49.3,29.1 	"/>
	<path class="st0" d="M30.1,29.1c-0.7-0.4-1.4-0.7-2.2-0.9c0.6-0.2,1.2-0.5,1.7-0.9c0.5-0.3,0.9-0.8,1.2-1.4
		c0.4-0.6,0.5-1.4,0.5-2.3c0-1.7-0.5-2.9-1.6-3.8c-1.1-0.9-2.5-1.3-4.4-1.3h-5.8v20.3h5.8c2.3,0,4.1-0.5,5.2-1.5
		c1.1-1,1.7-2.4,1.7-4c0-1.1-0.2-2-0.7-2.6C31.2,30,30.7,29.5,30.1,29.1z M20.7,19.5h4.7c1.7,0,3,0.4,3.7,1.1c0.8,0.8,1.1,1.8,1.1,3
		c0,1.2-0.4,2.2-1.1,3c-0.8,0.8-2,1.1-3.7,1.1h-4.7V19.5z M29.7,36.8c-1.1,0.7-2.5,1.1-4.3,1.1h-4.7v-9.2h4.7c0.8,0,1.6,0.1,2.3,0.3
		c0.7,0.2,1.3,0.4,1.9,0.8c0.5,0.4,1,0.8,1.3,1.4c0.3,0.6,0.5,1.3,0.5,2.1C31.3,34.9,30.8,36.1,29.7,36.8z"/>
	<path class="st0" d="M26.9,23.5c0-1.2-0.7-1.8-2-1.8h-1v3.7h1C26.2,25.3,26.9,24.7,26.9,23.5z"/>
	<path class="st0" d="M48.5,18.5l-7.7,20.3h1.1l0.8-2h13.2l0.8,2h1.1L50,18.5H48.5z M43,35.9l6.2-16.4l6.2,16.4H43z"/>
	<polygon class="st0" points="92.8,18.5 91.7,18.5 91.7,38.8 92.8,38.8 92.8,28.7 104.5,28.7 104.5,38.8 105.6,38.8 105.6,18.5 
		104.5,18.5 104.5,27.7 92.8,27.7 	"/>
	<path class="st0" d="M80.5,37.3c-0.4,0.2-0.9,0.3-1.4,0.4c-0.6,0.1-1.2,0.2-2,0.2c-1.5,0-2.8-0.2-4-0.7c-1.2-0.5-2.2-1.1-3-2
		c-0.8-0.8-1.4-1.8-1.9-2.9s-0.7-2.3-0.7-3.6c0-1.3,0.2-2.5,0.7-3.6s1.1-2.1,1.9-2.9c0.8-0.8,1.8-1.5,2.9-2c1.1-0.5,2.4-0.7,3.8-0.7
		c0.7,0,1.3,0,1.9,0.1c0.5,0.1,1,0.2,1.4,0.3c0.5,0.1,0.8,0.3,1.2,0.5l0.6-1c-0.4-0.2-0.9-0.4-1.4-0.5c-0.5-0.1-1-0.3-1.6-0.4
		c-0.6-0.1-1.3-0.2-2-0.2c-1.4,0-2.7,0.2-3.9,0.7c-1.2,0.5-2.3,1.2-3.3,2.1c-0.9,0.9-1.7,2-2.3,3.2c-0.6,1.3-0.9,2.7-0.9,4.2
		c0,1.6,0.3,3,0.8,4.2c0.5,1.3,1.3,2.3,2.3,3.2c1,0.9,2.1,1.6,3.4,2.1c1.3,0.5,2.6,0.7,4.1,0.7c0.8,0,1.5-0.1,2.2-0.2
		c0.6-0.1,1.2-0.3,1.6-0.4c0.5-0.2,1-0.4,1.4-0.6l-0.6-1C81.3,36.9,80.9,37.1,80.5,37.3z"/>
	<polygon class="st0" points="262.1,29.1 269.7,29.1 269.7,28.1 262.1,28.1 262.1,19.5 270.1,19.5 270.1,18.5 261,18.5 261,38.8 
		270.1,38.8 270.1,37.9 262.1,37.9 	"/>
	<path class="st0" d="M297.9,20.2c-0.7-0.6-1.6-1-2.7-1.3c-1-0.3-2.1-0.4-3.3-0.4h-4.5v20.3h1v-6.4h3.5c1.2,0,2.3-0.1,3.3-0.4
		c1-0.3,1.9-0.7,2.7-1.3c0.7-0.6,1.3-1.3,1.7-2.2c0.4-0.9,0.6-1.9,0.6-3.1c0-1.2-0.2-2.2-0.6-3.1C299.3,21.5,298.7,20.8,297.9,20.2z
		 M298.6,28.4c-0.4,0.8-0.9,1.4-1.6,1.8c-0.7,0.5-1.4,0.8-2.3,1c-0.9,0.2-1.8,0.3-2.7,0.3h-3.5v-12h3.5c1,0,1.9,0.1,2.7,0.3
		c0.9,0.2,1.6,0.5,2.3,1c0.7,0.5,1.2,1.1,1.6,1.8c0.4,0.8,0.6,1.7,0.6,2.9S299,27.6,298.6,28.4z"/>
	<path class="st0" d="M342.8,23.2c-0.7-0.5-1.6-0.7-2.6-0.7h-0.4v5.9h0.4c1,0,1.9-0.2,2.6-0.7c0.7-0.5,1.1-1.2,1.1-2.3
		S343.5,23.7,342.8,23.2z"/>
	<path class="st0" d="M347.1,29.8c0.9-1.1,1.3-2.4,1.3-4.1c0-1.2-0.2-2.2-0.7-3.1c-0.5-0.9-1.1-1.6-1.9-2.2
		c-0.8-0.6-1.7-1.1-2.8-1.4c-1.1-0.3-2.2-0.5-3.5-0.5h-4.3v20.3h1v-6.1h3.3c1,0,2.1-0.1,3-0.3l3.8,6.4h1.2l-4-6.7
		C345.1,31.6,346.2,30.8,347.1,29.8z M345.2,30.2c-1.4,1.1-3.3,1.6-5.7,1.6h-3.3V19.5h3.3c2.4,0,4.3,0.5,5.7,1.6
		c1.4,1.1,2.1,2.6,2.1,4.6C347.3,27.6,346.6,29.2,345.2,30.2z"/>
	<path class="st0" d="M316.5,18.5l-7.7,20.3h1.1l0.8-2h13.2l0.8,2h1.1l-7.7-20.3H316.5z M311.1,35.9l6.2-16.4l6.2,16.4H311.1z"/>
	<polygon class="st0" points="378.4,18.5 377.2,18.5 383,29.3 383,38.8 384,38.8 384,29.3 389.9,18.5 388.7,18.5 383.5,28 	"/>
	<path class="st0" d="M0,0v57.4h408.5V0H0z M33.7,39.8c-0.8,0.7-1.9,1.3-3.1,1.7c-1.2,0.4-2.6,0.6-4.1,0.6H15.7V15.3h10.4
		c1.3,0,2.6,0.2,3.7,0.5c1.1,0.3,2.1,0.8,2.8,1.4c0.8,0.6,1.4,1.3,1.8,2.2c0.4,0.9,0.7,1.9,0.7,3.1c0,0.9-0.1,1.6-0.3,2.2
		c-0.2,0.6-0.4,1.1-0.7,1.5c-0.3,0.5-0.6,0.9-1,1.2c0.6,0.4,1.1,0.9,1.6,1.4c0.4,0.5,0.8,1.1,1.1,1.9c0.3,0.8,0.5,1.7,0.5,2.8
		c0,1.3-0.2,2.4-0.7,3.5C35.2,38.1,34.6,39,33.7,39.8z M54.2,42l-0.9-2.4h-8.1L44.3,42h-8.4l10.1-26.7h6.4L62.6,42H54.2z M84.2,41.2
		c-0.9,0.4-1.9,0.7-3.1,1c-1.2,0.3-2.6,0.5-4.1,0.5c-2.1,0-4-0.3-5.8-1c-1.8-0.7-3.3-1.6-4.6-2.9c-1.3-1.2-2.3-2.7-3-4.4
		c-0.7-1.7-1.1-3.6-1.1-5.7c0-2.1,0.4-4.1,1.1-5.8c0.7-1.7,1.8-3.2,3-4.4c1.3-1.2,2.8-2.2,4.5-2.8c1.7-0.7,3.5-1,5.4-1
		c1.5,0,2.9,0.1,4.1,0.4c1.2,0.3,2.2,0.6,3.1,1c1,0.4,1.8,0.9,2.6,1.4l-4.2,7.4c-0.4-0.3-0.9-0.6-1.4-0.9c-0.5-0.2-1-0.4-1.6-0.6
		c-0.6-0.2-1.3-0.3-2.1-0.3c-0.8,0-1.6,0.1-2.3,0.4c-0.7,0.3-1.3,0.7-1.8,1.2c-0.5,0.5-0.9,1.1-1.2,1.8s-0.4,1.4-0.4,2.2
		c0,0.8,0.2,1.5,0.5,2.2c0.3,0.7,0.7,1.3,1.3,1.8c0.5,0.5,1.2,0.9,1.9,1.2c0.7,0.3,1.5,0.4,2.4,0.4c0.9,0,1.6-0.1,2.3-0.3
		c0.7-0.2,1.2-0.5,1.7-0.7c0.5-0.3,1-0.6,1.4-1l4.2,7.4C86,40.2,85.2,40.7,84.2,41.2z M109.6,42H101v-9.9h-4.8V42h-8.5V15.3h8.5v9.1
		h4.8v-9.1h8.6V42z M128.4,42h-16V15.3h15.7v7h-7.2v3h7.1v6.6h-7.1V35h7.5V42z M147,42h-16.2V15.3h8.9V35h7.4V42z M174.7,34.1
		c-0.7,1.7-1.7,3.2-3,4.5c-1.3,1.3-2.8,2.3-4.5,3c-1.7,0.7-3.5,1.1-5.4,1.1c-1.9,0-3.7-0.4-5.4-1.1s-3.2-1.7-4.5-3
		c-1.3-1.3-2.3-2.8-3-4.5c-0.7-1.7-1.1-3.5-1.1-5.4s0.4-3.7,1.1-5.4c0.7-1.7,1.7-3.2,3-4.5c1.3-1.3,2.8-2.3,4.5-3s3.5-1.1,5.4-1.1
		c1.9,0,3.7,0.4,5.4,1.1c1.7,0.7,3.2,1.7,4.5,3c1.3,1.3,2.3,2.8,3,4.5c0.7,1.7,1.1,3.5,1.1,5.4S175.4,32.4,174.7,34.1z M190.5,42
		l-4-6.8V42H178V15.3h9.2c1.7,0,3.3,0.2,4.7,0.7c1.5,0.5,2.7,1.1,3.8,2c1.1,0.9,1.9,2,2.5,3.3c0.6,1.3,0.9,2.8,0.9,4.5
		c0,1.3-0.2,2.5-0.6,3.4c-0.4,0.9-0.8,1.7-1.2,2.3c-0.5,0.7-1.1,1.3-1.8,1.8l5,8.8H190.5z M217.3,42h-16V15.3h15.7v7h-7.2v3h7.1v6.6
		h-7.1V35h7.5V42z M232.1,22.3V42h-8.8V22.3h-4.9v-7H237v7H232.1z M255.6,22.3h-4.9V42h-8.8V22.3H237v-7h18.6V22.3z M273,42h-16
		V15.3h15.7v7h-7.2v3h7.1v6.6h-7.1V35h7.5V42z M300.6,33.3c-1.1,0.8-2.4,1.4-3.9,1.8c-1.5,0.4-3.1,0.6-4.8,0.6V42h-8.5V15.3h8.5
		c1.7,0,3.3,0.2,4.8,0.6c1.5,0.4,2.8,1,3.9,1.8c1.1,0.8,2,1.8,2.6,3.1c0.6,1.3,1,2.9,1,4.7c0,1.8-0.3,3.4-1,4.7
		C302.6,31.5,301.7,32.5,300.6,33.3z M322.2,42l-0.9-2.4h-8.1l-0.9,2.4H304l10.1-26.7h6.4L330.6,42H322.2z M343.7,42l-4-6.8V42h-8.5
		V15.3h9.2c1.7,0,3.3,0.2,4.7,0.7c1.5,0.5,2.7,1.1,3.8,2c1.1,0.9,1.9,2,2.5,3.3c0.6,1.3,0.9,2.8,0.9,4.5c0,1.3-0.2,2.5-0.6,3.4
		c-0.4,0.9-0.8,1.7-1.2,2.3c-0.5,0.7-1.1,1.3-1.8,1.8l5,8.8H343.7z M387.8,30.5V42h-8.5V30.5l-7.5-13.7v5.5h-4.9V42h-8.8V22.3h-4.9
		v-7H371l0.8,1.5v-1.5h8.7l3.1,5.6l3-5.6h9.5L387.8,30.5z"/>
	<polygon class="st0" points="315.5,33.7 319.1,33.7 317.3,29.1 	"/>
	<polygon class="st0" points="356.2,19.5 361.9,19.5 361.9,38.8 363,38.8 363,19.5 368.7,19.5 368.7,18.5 356.2,18.5 	"/>
	<path class="st0" d="M292.3,22.5h-0.4v5.9h0.4c1.1,0,1.9-0.3,2.4-0.8c0.5-0.5,0.7-1.2,0.7-2.2s-0.2-1.7-0.7-2.2
		C294.2,22.8,293.4,22.5,292.3,22.5z"/>
</g>
</svg>
