<svg xmlns="http://www.w3.org/2000/svg" viewBox="0 0 189.4 90.43"><defs><style>.cls-1{fill-rule:evenodd;}</style></defs><title>logo_laurasue</title><g id="Layer_2" data-name="Layer 2"><g id="Layer_1-2" data-name="Layer 1"><path d="M66.38,34.2A14.89,14.89,0,0,1,55.3,37.44q-11.74-.64-12.68-9.29c.2.39.36.7.51.94s.26.43.36.58q4.75,6,11.81,5.61a16.16,16.16,0,0,0,4.86-.83,14,14,0,0,0,4.06-2.19,9.86,9.86,0,0,0,4-8.21c-.2-3.5-1.4-6.16-3.6-8a13.14,13.14,0,0,0-8.72-2.63q-16.69.22-32,19.81a124.74,124.74,0,0,0-9.83,14.65q-4.94,8.46-10,19.47a15.94,15.94,0,0,0-.86,4.54q0,2.37,1.8,2.37c1.15,0,2.71-1.07,4.68-3.24L11.3,69c.92-1.2,2.21-3,3.89-5.26.39-.43.72-.5,1-.21.19,0,.29.19.29.43a.6.6,0,0,1-.22.43,31.51,31.51,0,0,1-5,6.91c-2.68,3-4.92,4.54-6.69,4.54a4.17,4.17,0,0,1-3.46-1.66A6,6,0,0,1,0,70.2,18.08,18.08,0,0,1,.9,65a41.36,41.36,0,0,1,2.77-6.63Q26.5,11.89,55.08,11.88q15.12,0,15.84,11.95A11.23,11.23,0,0,1,66.38,34.2Z"/><path d="M37.94,71.06q-3,4.55-6.26,4.54-4.17,0-4.61-4Q23.26,75,19.58,75q-5.25,0-5.25-6.48,0-7.55,6.77-14.32,4.32-4.32,8.56-4.32a4.49,4.49,0,0,1,4.83,3.67l.43-.43a6.66,6.66,0,0,1,5.33-1.3q-3.24,5-5.44,9.07a61.69,61.69,0,0,0-3.42,7.42c-1,2.5-1.25,4.22-.86,5.18a1.07,1.07,0,0,0,1.08.79q3.09,0,10-10.94c.33-.38.67-.41,1-.07a.7.7,0,0,1,0,1.08ZM29,51.62c-1.88,0-3.82,1.37-5.84,4.11Q17.64,63,17.64,69.62q0,3.61,2.52,3.61,4.89,0,8.93-10.37A22.76,22.76,0,0,0,31,54.72C31,52.66,30.36,51.62,29,51.62Z"/><path d="M54.93,75.24q-4,0-4.32-3.67a16,16,0,0,1-4.1,2.77,9.51,9.51,0,0,1-3.89.9q-5.32,0-4.89-6.48a101.93,101.93,0,0,0,5.72-11.34,20.29,20.29,0,0,0,1.84-6.8v-.15a4.33,4.33,0,0,1,.79-.21,5.49,5.49,0,0,1,.93-.07,6.49,6.49,0,0,1,1.16.1l1.36.25q-.21,2.82-4,9.8c-2.45,4.65-3.77,8-4,9.93q-.57,3.24,1.8,3.24,2.74,0,6.19-4.17a12.51,12.51,0,0,0,.9-1.15c.27-.39.54-.77.83-1.16l.65-.93c.77-1.83,1.7-4.12,2.81-6.88s2.42-5.94,4-9.54c.38,0,.81.39,1.29,1.15,1,1.68,1.44,2.69,1.3,3a11.17,11.17,0,0,1-1,3q-.9,2.09-2.56,5.4A31.46,31.46,0,0,1,55.22,67a.49.49,0,0,1,.15.36.88.88,0,0,1-.08.33,2.37,2.37,0,0,1-.14.32,10.64,10.64,0,0,0-1.44,4.39,1.65,1.65,0,0,0,.14.8,1.09,1.09,0,0,0,1.08.71c2.07,0,5.83-3.14,11-10.39.29-.33,1.27.32.94.66C61.27,71.7,57.14,75.24,54.93,75.24Zm-9.86-24.7.14-.21a.19.19,0,0,0,.08.14A.29.29,0,0,1,45.07,50.54Z"/><path d="M65.87,63.6c2.14-2.81,4.59-7,4.59-7a4.94,4.94,0,0,1-1-3.41,7.73,7.73,0,0,1,1.11-1.51,22.33,22.33,0,0,1,2.27-2.16,2.08,2.08,0,0,1,1.37-.65A3.12,3.12,0,0,1,77,51.7a2.74,2.74,0,0,1-.47,1.51,13,13,0,0,1-1.33,1.65A19.5,19.5,0,0,0,79,54.54a7,7,0,0,0,3-1.11c1-.69,2.81-2.24,2.81-2.24l.94,1.37c-5.33,5.38-9.11,10.19-11.09,14.63-1.18,3-1.3,4-1.17,5.16a2.08,2.08,0,0,0,2.5,2.09c1.5-.25,6-4.31,10.12-10.65a.9.9,0,0,1,.65-.28.56.56,0,0,1,.64.64s-.07.15-.21.29A35.09,35.09,0,0,1,82,71.57c-2.6,2.88-4.9,4.32-6.92,4.32q-4.82,0-4.82-5.69A7.37,7.37,0,0,1,71.21,67s.81-1.7,2.13-3.91a60,60,0,0,1,3.91-5.45,16.68,16.68,0,0,1-4.47.26c-.88-.19-1-.44-1-.44l-5,6.88Zm7.86-11.11a1.11,1.11,0,0,0-.8-.36,3.42,3.42,0,0,0-.43,1.3,1.35,1.35,0,0,0,.36,1A2.45,2.45,0,0,0,73.73,52.49Z"/><path d="M108.21,71.06q-3,4.55-6.26,4.54-4.17,0-4.61-4Q93.53,75,89.85,75q-5.25,0-5.25-6.48,0-7.55,6.77-14.32,4.32-4.32,8.56-4.32a4.49,4.49,0,0,1,4.83,3.67l.43-.43a6.66,6.66,0,0,1,5.33-1.3q-3.24,5-5.44,9.07a61.69,61.69,0,0,0-3.42,7.42c-1,2.5-1.25,4.22-.86,5.18a1.07,1.07,0,0,0,1.08.79q3.09,0,10-10.94c.34-.38.68-.41,1-.07a.7.7,0,0,1,0,1.08ZM99.29,51.62c-1.88,0-3.82,1.37-5.84,4.11Q87.92,63,87.91,69.62q0,3.61,2.52,3.61,4.89,0,8.93-10.37a22.76,22.76,0,0,0,1.94-8.14C101.3,52.66,100.63,51.62,99.29,51.62Z"/><path d="M139,72.58q-5.7,3.3-10.3,3.31h-.94l-.61-.14a1.57,1.57,0,0,0-.39-.08,3.82,3.82,0,0,1-1.41-.29,7.36,7.36,0,0,1-1.4-.71,4.55,4.55,0,0,1-1.08-1,2,2,0,0,1-.43-1.23,1.67,1.67,0,0,1,.07-.47c0-.16.1-.29.14-.39a9.6,9.6,0,0,1,2.81-4.75,7.31,7.31,0,0,1,4.9-1.59,7.55,7.55,0,0,1,4.17,1.8l-1.94-.61a4.41,4.41,0,0,0-1.3-.25,4.6,4.6,0,0,0-2.12.5A5.82,5.82,0,0,0,127.44,68,7,7,0,0,0,126.25,70a6,6,0,0,0-.43,2.24,2,2,0,0,0,2.23,2.3,7.59,7.59,0,0,0,2.81-.54,8.42,8.42,0,0,0,2.48-1.51,9.59,9.59,0,0,0,1.88-2.2,7.1,7.1,0,0,0,1-2.66q.28-1.44-1.3-6.91a12.28,12.28,0,0,1,0-6.7c-1.73,2.11-3.21,3.86-4.46,5.26s-2.26,2.47-3,3.24A16.35,16.35,0,0,1,125.57,64a15.73,15.73,0,0,1-2.13,1.26l-.79-1q1.88-1.08,6.48-6.56l6.7-8a3.92,3.92,0,0,1,3.24-1.44,2.77,2.77,0,0,1,1.65.65,6.48,6.48,0,0,0-4.53,6c-.15,1.06.38,2.52,1.58,4.4.72,1.1,1.29,2,1.69,2.7a6.59,6.59,0,0,1,.9,4.35,10.74,10.74,0,0,1-2.23,5.19,41.69,41.69,0,0,0,8.07-7.13.62.62,0,0,1,.43-.22q1.29,0,1.08.87a1,1,0,0,0-.29.5A34.13,34.13,0,0,1,139,72.58Z"/><path d="M158.94,75.24q-4,0-4.32-3.67a16,16,0,0,1-4.1,2.77,9.58,9.58,0,0,1-3.89.9q-5.32,0-4.9-6.48a104.07,104.07,0,0,0,5.73-11.34,20.21,20.21,0,0,0,1.83-6.8v-.15a4.56,4.56,0,0,1,.79-.21,5.53,5.53,0,0,1,.94-.07,6.38,6.38,0,0,1,1.15.1l1.37.25q-.21,2.82-4,9.8c-2.45,4.65-3.77,8-4,9.93q-.59,3.24,1.8,3.24c1.82,0,3.89-1.39,6.19-4.17a14.52,14.52,0,0,0,.9-1.15c.26-.39.54-.77.83-1.16l.65-.93c.76-1.83,1.7-4.12,2.8-6.88s2.43-5.94,4-9.54c.39,0,.82.39,1.3,1.15,1,1.68,1.44,2.69,1.3,3a11.29,11.29,0,0,1-1,3q-.9,2.09-2.55,5.4A31.46,31.46,0,0,1,159.23,67a.52.52,0,0,1,.14.36.85.85,0,0,1-.07.33l-.14.32a10.64,10.64,0,0,0-1.44,4.39,1.54,1.54,0,0,0,.14.8,1.07,1.07,0,0,0,1.08.71q3.09,0,10.8-10.87c.29-.33.58-.38.86-.14a.7.7,0,0,1,0,1.08Q162.26,75.25,158.94,75.24Zm-9.86-24.7.14-.21a.17.17,0,0,0,.07.14A.28.28,0,0,1,149.08,50.54Z"/><path d="M189.32,64.15a2.59,2.59,0,0,1-.14.29q-6.84,11.24-13.32,11.23a6.16,6.16,0,0,1-5.11-2.37,8.81,8.81,0,0,1-1.87-5.62q0-7.41,8.06-13.68,3.81-3,6.7-3c2.44,0,3.67,1.15,3.67,3.46s-2.19,4.68-6.55,7.12c-.87.53-1.87,1.17-3,1.91s-2.37,1.62-3.71,2.63Q173,67.25,173,70.85t2.88,3.67q5,0,10.58-8.42l2.16-2.95a.7.7,0,0,1,.8.79A.51.51,0,0,1,189.32,64.15Zm-3.74-10.58c-.05.14-.26-.19-.65-1a.9.9,0,0,1-.5-.21.94.94,0,0,0-.58-.22q-1.93,0-5.4,5.11a26.52,26.52,0,0,0-3.74,6.91q1.65-1.08,3.92-2.8c1.51-1.16,3.23-2.57,5.15-4.25A7.78,7.78,0,0,0,185.58,53.57Z"/><path class="cls-1" d="M41.51,5.64c0,2.26-1.42,5.92-3.47,10,7.5-3.72,16.73-4.79,23.45-2.44,2.08.72,5,1.83,8.19,2.87.56-.53,1.27.41,1.82-2s-.51-4.38,3-7.87S87.1,4.77,87.1,4.77s-2.65,6.42-6.29,9.15-7.92,2.3-10.09,2.46c6.69,2.07,14.64,3.7,18.75,4.52s9.08.07,12.16-.57l0-.06c1.73-5.07,2.31-7,5.78-7.61a20.37,20.37,0,0,0,6.9-3.08s-1.7,10.7-6.33,12.6a5.72,5.72,0,0,1-5.23-.66,25.4,25.4,0,0,1-10,1.31c2.78,1.55,7.69,4.69,9.44,9.5,2.31,6.35,4.56,7.82,4.56,7.82s-8-.21-13.23-3.38-6.34-9.52-6.92-14.6C76.18,19,65.14,15.88,60.52,14s-13.13,0-16.3,1.32c-1.38.59-2.84,1.21-4.28,1.93,4.8.05,8.85.3,11.91,4.08a22.57,22.57,0,0,0,6.63,6c.06.32-13.25,4-16.71-2.3-2.24-4.11-3.66-5.12-4.11-6.57-.77.32-1.89.75-2.57,1-4.59,1.18-5.77,2.37-6.48,3.66.56-1-.86,1-2.47,3-1.09,1.36.34-1.49-2.55-2.76S18,17.9,18.13,13.49a24.54,24.54,0,0,0-1-8,33.92,33.92,0,0,1,8.82,3.36c4.16,2.28,3.3,8.09,2.69,13.4,4.92-2.2,6.77-7.3,8.51-11.12,1.66-3.64,4-5,4.92-11.09ZM70.19,16.2l.08,0,.07-.07Z"/><path d="M15.15,81.94H14.3v-.81H18a4.57,4.57,0,1,1,0,9.14h-2c-.56,0-.79-.23-.79-.79Zm1.2,7.53h1.53a3.77,3.77,0,0,0,0-7.53H16.06v7.24A.26.26,0,0,0,16.35,89.47Z"/><path d="M47.19,81.94h-.84v-.81h5.23c.55,0,.79.24.79.8v.91h-.86v-.62a.25.25,0,0,0-.28-.28H48.1v3.33h3.44v.8H48.1v3.11a.26.26,0,0,0,.29.29H51.6a.26.26,0,0,0,.29-.29v-.61h.84v.91c0,.56-.23.79-.79.79H48c-.56,0-.8-.23-.8-.79Z"/><path d="M76.85,88.46a3.32,3.32,0,0,0,2.36,1.12A1.67,1.67,0,0,0,81,88c0-2.26-4.51-1.81-4.51-4.64A2.51,2.51,0,0,1,79.3,81c.89,0,2.47.37,2.47,1.57v.65h-.85v-.43c0-.55-.76-1-1.6-1-1.19,0-1.87.69-1.87,1.47,0,2.12,4.51,1.6,4.51,4.62a2.56,2.56,0,0,1-2.77,2.52,3.88,3.88,0,0,1-2.9-1.3Z"/><path d="M105.89,89.47h.86V81.94h-.86v-.81h2.61v.81h-.87v7.53h.87v.8h-2.61Z"/><path d="M136.92,81a4.59,4.59,0,0,1,3.2,1.12l-.53.67a4.18,4.18,0,0,0-2.66-.94,3.88,3.88,0,0,0,0,7.74,4,4,0,0,0,2.89-1.34V87.1a.26.26,0,0,0-.29-.29H139V86h.91c.56,0,.8.23.8.79v3.47h-.84v-.69c0-.19,0-.39,0-.39h0a4.14,4.14,0,0,1-3,1.24,4.52,4.52,0,0,1-4.47-4.75A4.57,4.57,0,0,1,136.92,81Z"/><path d="M164.64,89.47h.56a.26.26,0,0,0,.28-.29V81.13h.83L171,87.65c.31.45.74,1.19.74,1.19h0s-.07-.71-.07-1.19V81.93c0-.56.24-.8.8-.8h1v.81h-.56a.26.26,0,0,0-.29.28v8h-.83l-4.67-6.51c-.32-.44-.75-1.18-.75-1.18h0s.08.7.08,1.18v5.72c0,.56-.23.79-.79.79h-1Z"/></g></g></svg>